<svg width="110" height="31" viewBox="0 0 110 31" fill="none" xmlns="http://www.w3.org/2000/svg">
<path d="M25.0378 14.5C25.0378 21.6797 19.7175 29.5 12.5378 29.5C5.35814 29.5 0 27.1797 0 20C0 12.8203 3.85814 5 11.0378 5C18.2175 5 25.0378 7.3203 25.0378 14.5Z" fill="#FF3131" fill-opacity="0.24"/>
<path d="M26.84 17.12C26.84 20.8556 26.0552 24.1885 24.2823 26.5788C22.5223 28.9516 19.7559 30.44 15.68 30.44C11.557 30.44 8.97273 29.5668 7.05131 27.515C5.10811 25.44 3.79605 22.1158 2.36008 17.0701C2.3834 9.68351 7.58218 2.38976 15.6307 2.36009C19.5057 3.45312 22.2951 5.30072 24.1204 7.77178C25.9542 10.2542 26.84 13.3995 26.84 17.12Z" stroke="#A8A8A8" stroke-width="0.72"/>
<path d="M66.84 17.12C66.84 20.8556 66.0552 24.1885 64.2823 26.5788C62.5223 28.9516 59.7559 30.44 55.68 30.44C51.557 30.44 48.9727 29.5668 47.0513 27.515C45.1081 25.44 43.7961 22.1158 42.3601 17.0701C42.3834 9.68351 47.5822 2.38976 55.6307 2.36009C59.5057 3.45312 62.2951 5.30072 64.1204 7.77178C65.9542 10.2542 66.84 13.3995 66.84 17.12Z" stroke="#A8A8A8" stroke-width="0.72"/>
<path d="M106.84 15.12C106.84 18.8556 106.055 22.1885 104.282 24.5788C102.522 26.9516 99.7559 28.44 95.68 28.44C91.557 28.44 88.9727 27.5668 87.0513 25.515C85.1081 23.44 83.7961 20.1158 82.3601 15.0701C82.3834 7.68351 87.5822 0.389756 95.6307 0.360091C99.5057 1.45312 102.295 3.30072 104.12 5.77178C105.954 8.25415 106.84 11.3995 106.84 15.12Z" stroke="#A8A8A8" stroke-width="0.72"/>
<path d="M109.038 11.5C109.038 18.6797 103.718 26.5 96.5378 26.5C89.3581 26.5 84 24.1797 84 17C84 9.8203 87.8581 2 95.0378 2C102.218 2 109.038 4.3203 109.038 11.5Z" fill="#3CFE60" fill-opacity="0.24"/>
<path d="M64.0378 13.5C64.0378 20.6797 58.7175 28.5 51.5378 28.5C44.3581 28.5 39 26.1797 39 19C39 11.8203 42.8581 4 50.0378 4C57.2175 4 64.0378 6.3203 64.0378 13.5Z" fill="#FFEE6F" fill-opacity="0.24"/>
</svg>
