<svg width="425" height="49" viewBox="0 0 425 49" fill="none" xmlns="http://www.w3.org/2000/svg">
<path d="M0.272727 9.56818V1.45454H38.5V9.56818H24.25V48H14.5227V9.56818H0.272727ZM85.4432 24.7273C85.4432 29.803 84.4811 34.1212 82.5568 37.6818C80.6477 41.2424 78.0417 43.9621 74.7386 45.8409C71.4508 47.7045 67.7538 48.6364 63.6477 48.6364C59.5114 48.6364 55.7992 47.697 52.5114 45.8182C49.2235 43.9394 46.625 41.2197 44.7159 37.6591C42.8068 34.0985 41.8523 29.7879 41.8523 24.7273C41.8523 19.6515 42.8068 15.3333 44.7159 11.7727C46.625 8.21212 49.2235 5.5 52.5114 3.63636C55.7992 1.75757 59.5114 0.81818 63.6477 0.81818C67.7538 0.81818 71.4508 1.75757 74.7386 3.63636C78.0417 5.5 80.6477 8.21212 82.5568 11.7727C84.4811 15.3333 85.4432 19.6515 85.4432 24.7273ZM75.4659 24.7273C75.4659 21.4394 74.9735 18.6667 73.9886 16.4091C73.0189 14.1515 71.6477 12.4394 69.875 11.2727C68.1023 10.1061 66.0265 9.52273 63.6477 9.52273C61.2689 9.52273 59.1932 10.1061 57.4205 11.2727C55.6477 12.4394 54.2689 14.1515 53.2841 16.4091C52.3144 18.6667 51.8295 21.4394 51.8295 24.7273C51.8295 28.0152 52.3144 30.7879 53.2841 33.0455C54.2689 35.303 55.6477 37.0152 57.4205 38.1818C59.1932 39.3485 61.2689 39.9318 63.6477 39.9318C66.0265 39.9318 68.1023 39.3485 69.875 38.1818C71.6477 37.0152 73.0189 35.303 73.9886 33.0455C74.9735 30.7879 75.4659 28.0152 75.4659 24.7273ZM109.233 48H92.733V1.45454H109.369C114.051 1.45454 118.081 2.38636 121.46 4.25C124.839 6.09848 127.438 8.75757 129.256 12.2273C131.089 15.697 132.006 19.8485 132.006 24.6818C132.006 29.5303 131.089 33.697 129.256 37.1818C127.438 40.6667 124.824 43.3409 121.415 45.2045C118.021 47.0682 113.96 48 109.233 48ZM102.574 39.5682H108.824C111.733 39.5682 114.18 39.053 116.165 38.0227C118.165 36.9773 119.665 35.3636 120.665 33.1818C121.68 30.9848 122.188 28.1515 122.188 24.6818C122.188 21.2424 121.68 18.4318 120.665 16.25C119.665 14.0682 118.172 12.4621 116.188 11.4318C114.203 10.4015 111.756 9.88636 108.847 9.88636H102.574V39.5682ZM182.068 24.7273C182.068 29.803 181.106 34.1212 179.182 37.6818C177.273 41.2424 174.667 43.9621 171.364 45.8409C168.076 47.7045 164.379 48.6364 160.273 48.6364C156.136 48.6364 152.424 47.697 149.136 45.8182C145.848 43.9394 143.25 41.2197 141.341 37.6591C139.432 34.0985 138.477 29.7879 138.477 24.7273C138.477 19.6515 139.432 15.3333 141.341 11.7727C143.25 8.21212 145.848 5.5 149.136 3.63636C152.424 1.75757 156.136 0.81818 160.273 0.81818C164.379 0.81818 168.076 1.75757 171.364 3.63636C174.667 5.5 177.273 8.21212 179.182 11.7727C181.106 15.3333 182.068 19.6515 182.068 24.7273ZM172.091 24.7273C172.091 21.4394 171.598 18.6667 170.614 16.4091C169.644 14.1515 168.273 12.4394 166.5 11.2727C164.727 10.1061 162.652 9.52273 160.273 9.52273C157.894 9.52273 155.818 10.1061 154.045 11.2727C152.273 12.4394 150.894 14.1515 149.909 16.4091C148.939 18.6667 148.455 21.4394 148.455 24.7273C148.455 28.0152 148.939 30.7879 149.909 33.0455C150.894 35.303 152.273 37.0152 154.045 38.1818C155.818 39.3485 157.894 39.9318 160.273 39.9318C162.652 39.9318 164.727 39.3485 166.5 38.1818C168.273 37.0152 169.644 35.303 170.614 33.0455C171.598 30.7879 172.091 28.0152 172.091 24.7273ZM204.17 48V1.45454H222.807C226.231 1.45454 229.087 1.96212 231.375 2.97727C233.663 3.99242 235.383 5.40151 236.534 7.20454C237.686 8.99242 238.261 11.053 238.261 13.3864C238.261 15.2045 237.898 16.803 237.17 18.1818C236.443 19.5455 235.443 20.6667 234.17 21.5455C232.913 22.4091 231.473 23.0227 229.852 23.3864V23.8409C231.625 23.9167 233.284 24.4167 234.83 25.3409C236.39 26.2652 237.655 27.5606 238.625 29.2273C239.595 30.8788 240.08 32.8485 240.08 35.1364C240.08 37.6061 239.466 39.8106 238.239 41.75C237.027 43.6742 235.231 45.197 232.852 46.3182C230.473 47.4394 227.542 48 224.057 48H204.17ZM214.011 39.9545H222.034C224.777 39.9545 226.777 39.4318 228.034 38.3864C229.292 37.3258 229.92 35.9167 229.92 34.1591C229.92 32.8712 229.61 31.7348 228.989 30.75C228.367 29.7652 227.481 28.9924 226.33 28.4318C225.193 27.8712 223.837 27.5909 222.261 27.5909H214.011V39.9545ZM214.011 20.9318H221.307C222.655 20.9318 223.852 20.697 224.898 20.2273C225.958 19.7424 226.792 19.0606 227.398 18.1818C228.019 17.303 228.33 16.25 228.33 15.0227C228.33 13.3409 227.731 11.9848 226.534 10.9545C225.352 9.92424 223.67 9.40909 221.489 9.40909H214.011V20.9318ZM275.233 1.45454H285.074V31.6818C285.074 35.0758 284.263 38.0455 282.642 40.5909C281.036 43.1364 278.786 45.1212 275.892 46.5455C272.998 47.9545 269.627 48.6591 265.778 48.6591C261.915 48.6591 258.536 47.9545 255.642 46.5455C252.748 45.1212 250.498 43.1364 248.892 40.5909C247.286 38.0455 246.483 35.0758 246.483 31.6818V1.45454H256.324V30.8409C256.324 32.6136 256.71 34.1894 257.483 35.5682C258.271 36.947 259.377 38.0303 260.801 38.8182C262.225 39.6061 263.884 40 265.778 40C267.688 40 269.347 39.6061 270.756 38.8182C272.18 38.0303 273.278 36.947 274.051 35.5682C274.839 34.1894 275.233 32.6136 275.233 30.8409V1.45454ZM309.67 48H293.17V1.45454H309.807C314.489 1.45454 318.519 2.38636 321.898 4.25C325.277 6.09848 327.875 8.75757 329.693 12.2273C331.527 15.697 332.443 19.8485 332.443 24.6818C332.443 29.5303 331.527 33.697 329.693 37.1818C327.875 40.6667 325.261 43.3409 321.852 45.2045C318.458 47.0682 314.398 48 309.67 48ZM303.011 39.5682H309.261C312.17 39.5682 314.617 39.053 316.602 38.0227C318.602 36.9773 320.102 35.3636 321.102 33.1818C322.117 30.9848 322.625 28.1515 322.625 24.6818C322.625 21.2424 322.117 18.4318 321.102 16.25C320.102 14.0682 318.61 12.4621 316.625 11.4318C314.64 10.4015 312.193 9.88636 309.284 9.88636H303.011V39.5682ZM356.233 48H339.733V1.45454H356.369C361.051 1.45454 365.081 2.38636 368.46 4.25C371.839 6.09848 374.438 8.75757 376.256 12.2273C378.089 15.697 379.006 19.8485 379.006 24.6818C379.006 29.5303 378.089 33.697 376.256 37.1818C374.438 40.6667 371.824 43.3409 368.415 45.2045C365.021 47.0682 360.96 48 356.233 48ZM349.574 39.5682H355.824C358.733 39.5682 361.18 39.053 363.165 38.0227C365.165 36.9773 366.665 35.3636 367.665 33.1818C368.68 30.9848 369.188 28.1515 369.188 24.6818C369.188 21.2424 368.68 18.4318 367.665 16.25C366.665 14.0682 365.172 12.4621 363.188 11.4318C361.203 10.4015 358.756 9.88636 355.847 9.88636H349.574V39.5682ZM380.756 1.45454H391.778L402.392 21.5H402.847L413.46 1.45454H424.483L407.506 31.5455V48H397.733V31.5455L380.756 1.45454Z" fill="#0758B2"/>
</svg>
