<svg width="226" height="241" viewBox="0 0 226 241" fill="none" xmlns="http://www.w3.org/2000/svg">
<rect x="0.5" y="15.875" width="225" height="225" rx="7.5" fill="#0758B2" fill-opacity="0.5"/>
<path d="M31.25 16.25C31.25 25.1556 51.6875 22.4375 42.3125 32.375C30.8181 32.375 21.5 25.1556 21.5 16.25C21.5 7.34441 30.8181 0.125 42.3125 0.125C52.0625 7.25 31.25 7.34441 31.25 16.25Z" fill="#D9D9D9"/>
<path d="M71 16.25C71 25.1556 91.4375 22.4375 82.0625 32.375C70.5681 32.375 61.25 25.1556 61.25 16.25C61.25 7.34441 70.5681 0.125 82.0625 0.125C91.8125 7.25 71 7.34441 71 16.25Z" fill="#D9D9D9"/>
<path d="M110.75 16.25C110.75 25.1556 131.188 22.4375 121.812 32.375C110.318 32.375 101 25.1556 101 16.25C101 7.34441 110.318 0.125 121.812 0.125C131.562 7.25 110.75 7.34441 110.75 16.25Z" fill="#D9D9D9"/>
<path d="M150.5 16.25C150.5 25.1556 170.938 22.4375 161.562 32.375C150.068 32.375 140.75 25.1556 140.75 16.25C140.75 7.34441 150.068 0.125 161.562 0.125C171.312 7.25 150.5 7.34441 150.5 16.25Z" fill="#D9D9D9"/>
<path d="M190.25 16.25C190.25 25.1556 210.688 22.4375 201.312 32.375C189.818 32.375 180.5 25.1556 180.5 16.25C180.5 7.34441 189.818 0.125 201.312 0.125C211.062 7.25 190.25 7.34441 190.25 16.25Z" fill="#D9D9D9"/>
<path d="M72.794 103.308V86.1932H153.43V103.308H123.371V184.375H102.853V103.308H72.794Z" fill="#004E86"/>
</svg>
